PathFileType	4	(X/Y/Z)	OpenSim_Sub06_EMGStiffKnee_Magnet.trc
DataRate	CameraRate	NumFrames	NumMarkers	Units	OrigDataRate	OrigDataStartFrame	OrigNumFrames
100	100	13	8	m	100	1359	5432
Frame#	Time	torso_imu_offset_imu	pelvis_imu_offset_imu	tibia_r_imu_offset_imu	femur_r_imu_offset_imu	tibia_l_imu_offset_imu	femur_l_imu_offset_imu	toes_r_imu_offset_imu	toes_l_imu_offset_imu
				X1	Y1	Z1	X2	Y2	Z2	X3	Y3	Z3	X4	Y4	Z4	X5	Y5	Z5	X6	Y6	Z6	X7	Y7	Z7	X8		Y8	Z8	

1359	13.58000000	-0.91406200	-0.19213900	0.11425800	-0.47265600	0.08032200	-0.80322300	-0.54589800	-0.56591800	-0.08325200	-0.73437500	-0.30981400	0.18994100	-0.39086900	0.71020500	-0.03125000	-0.74292000	0.27441400	0.23657200	-0.61792000	-0.18530300	-0.44458000	-0.79370100	0.12768600	-0.10620100
1360	13.59000000	-0.90551800	-0.18994100	0.11206100	-0.46215800	0.08471700	-0.80102500	-0.54541000	-0.57617200	-0.08740200	-0.72802700	-0.31811500	0.18335000	-0.41528300	0.70336900	-0.03295900	-0.75170900	0.26977500	0.24121100	-0.60961900	-0.19140600	-0.44653300	-0.79809600	0.12329100	-0.12866200
1361	13.60000000	-0.91210900	-0.18383800	0.12060500	-0.45996100	0.08252000	-0.80810500	-0.54541000	-0.57421900	-0.08300800	-0.72338900	-0.33252000	0.18408200	-0.43725600	0.68579100	-0.03173800	-0.74487300	0.26342800	0.23681600	-0.61352500	-0.19751000	-0.43798800	-0.79345700	0.11694300	-0.16235400
1362	13.61000000	-0.91210900	-0.18164100	0.12695300	-0.46191400	0.07836900	-0.81030300	-0.54126000	-0.57836900	-0.08081100	-0.72094700	-0.34082000	0.18896500	-0.46337900	0.66601600	-0.02832000	-0.75122100	0.25463900	0.23925800	-0.61572300	-0.19360400	-0.44213900	-0.78198200	0.11059600	-0.18261700
1363	13.62000000	-0.91015600	-0.17749000	0.12695300	-0.45996100	0.08252000	-0.80566400	-0.53881800	-0.58471700	-0.08715800	-0.71655300	-0.34692400	0.17993200	-0.48095700	0.65283200	-0.03173800	-0.74658200	0.24609400	0.23242200	-0.61352500	-0.19970700	-0.42749000	-0.77905300	0.09521500	-0.20263700
1364	13.63000000	-0.91674800	-0.17114300	0.13330100	-0.45996100	0.08252000	-0.80810500	-0.53686500	-0.58252000	-0.09838900	-0.70996100	-0.35717800	0.17822300	-0.50073200	0.63964800	-0.03540000	-0.75317400	0.24585000	0.23242200	-0.62182600	-0.20190400	-0.43383800	-0.77197300	0.08227500	-0.22509800
1365	13.64000000	-0.91259800	-0.16674800	0.13525400	-0.46411100	0.08252000	-0.80566400	-0.53027300	-0.59082000	-0.09594700	-0.71411100	-0.35937500	0.16894500	-0.52246100	0.61987300	-0.04980500	-0.75488300	0.23510700	0.23486300	-0.61547900	-0.20581100	-0.43579100	-0.76928700	0.07128900	-0.23852500
1366	13.65000000	-0.91284200	-0.15844700	0.13720700	-0.45971700	0.07836900	-0.80542000	-0.53002900	-0.59497100	-0.10034200	-0.71386700	-0.36547900	0.16699200	-0.54003900	0.60229500	-0.04199200	-0.75463900	0.22412100	0.23486300	-0.62158200	-0.20800800	-0.43383800	-0.76660200	0.05615200	-0.26098600
1367	13.66000000	-0.91528300	-0.15429700	0.14794900	-0.45776400	0.08056600	-0.81250000	-0.53442400	-0.59301800	-0.10034200	-0.71582000	-0.36962900	0.16015600	-0.56372100	0.57788100	-0.04272500	-0.75659200	0.21777300	0.23291000	-0.61718800	-0.21411100	-0.43164100	-0.75463900	0.04101600	-0.28100600
1368	13.67000000	-0.91308600	-0.15210000	0.15234400	-0.46191400	0.07836900	-0.80542000	-0.52172900	-0.59716800	-0.10009800	-0.70922900	-0.38208000	0.14917000	-0.58813500	0.56469700	-0.03955100	-0.76049800	0.20459000	0.24414100	-0.61743200	-0.21191400	-0.43359400	-0.74511700	0.02343800	-0.30566400
1369	13.68000000	-0.91748000	-0.14575200	0.14990200	-0.46191400	0.07617200	-0.80786100	-0.52368200	-0.59716800	-0.10473600	-0.71142600	-0.37988300	0.13769500	-0.59814500	0.53393600	-0.02441400	-0.76025400	0.19580100	0.24877900	-0.61523400	-0.21606400	-0.42529300	-0.73999000	0.00610400	-0.31909200
1370	13.69000000	-0.91113300	-0.14355500	0.15405300	-0.45336900	0.07836900	-0.81250000	-0.52148400	-0.60131800	-0.10668900	-0.71533200	-0.38623000	0.13793900	-0.61792000	0.52075200	-0.02587900	-0.75756800	0.18286100	0.25781200	-0.61718800	-0.21826200	-0.42529300	-0.73266600	-0.01147500	-0.33715800
1371	13.70000000	-0.91333000	-0.14355500	0.15405300	-0.45556600	0.07836900	-0.81250000	-0.52148400	-0.60546900	-0.10424800	-0.70043900	-0.39428700	0.13378900	-0.62841800	0.49633800	-0.02221700	-0.75976600	0.18505900	0.25341800	-0.61499000	-0.21801800	-0.43139600	-0.71875000	-0.02221700	-0.35937500
